<svg xmlns="http://www.w3.org/2000/svg" viewBox="0 0 32 32" fill="none">
  <!-- Compass spikes -->
  <polygon points="16,0 18.5,11 13.5,11" fill="#17464A"/>
  <polygon points="16,32 13.5,21 18.5,21" fill="#17464A"/>
  <polygon points="0,16 11,13.5 11,18.5" fill="#156B70"/>
  <polygon points="32,16 21,18.5 21,13.5" fill="#156B70"/>
  <!-- Background circle -->
  <circle cx="16" cy="16" r="10" fill="#F7FCFB"/>
  <!-- Top-left piece: teal-600 -->
  <path d="M6 16 L6 8 Q6 6 8 6 L16 6 L16 10 Q16 11.8 14.2 11.8 Q12.2 11.8 12.2 13.8 Q12.2 15.8 14.2 15.8 Q16 15.8 16 16 L6 16Z" fill="#1B898E"/>
  <circle cx="16" cy="12" r="1.8" fill="#1B898E"/>
  <!-- Top-right piece: teal-300 -->
  <path d="M16 6 L24 6 Q26 6 26 8 L26 16 L22 16 Q20.2 16 20.2 14.2 Q20.2 12.2 18.2 12.2 Q16.2 12.2 16.2 14.2 Q16.2 16 16 16 L16 6Z" fill="#37CBCA"/>
  <circle cx="20" cy="16" r="1.8" fill="#37CBCA"/>
  <!-- Bottom-right piece: amber-400 -->
  <path d="M26 16 L26 24 Q26 26 24 26 L16 26 L16 22 Q16 20.2 17.8 20.2 Q19.8 20.2 19.8 18.2 Q19.8 16.2 17.8 16.2 Q16 16.2 16 16 L26 16Z" fill="#F6A010"/>
  <circle cx="16" cy="20" r="1.8" fill="#F6A010"/>
  <!-- Bottom-left piece: amber-300 -->
  <path d="M6 16 L16 16 L16 17.8 Q16 19.8 14 19.8 Q12 19.8 12 21.8 Q12 23.8 14 23.8 Q16 23.8 16 26 L8 26 Q6 26 6 24 L6 16Z" fill="#F8BC29"/>
  <circle cx="12" cy="16" r="1.8" fill="#F8BC29"/>
</svg>
